<?xml version="1.0" encoding="utf-8"?>
<svg width="25px" height="25px" viewBox="0 0 25 25" version="1.1" xmlns:xlink="http://www.w3.org/1999/xlink" xmlns="http://www.w3.org/2000/svg">
  <defs>
    <path d="M25 0L25 0L25 25L0 25L0 0L25 0Z" id="path_1" />
    <clipPath id="clip_1">
      <use xlink:href="#path_1" clip-rule="evenodd" fill-rule="evenodd" />
    </clipPath>
  </defs>
  <g id="Facebook">
    <path d="M25 0L25 0L25 25L0 25L0 0L25 0Z" id="Facebook" fill="none" stroke="none" />
    <path d="M4.5 2C3.12524 2 2 3.12524 2 4.5L2 20.5C2 21.8748 3.12524 23 4.5 23L12.916 23C12.97 23.0089 13.0251 23.0089 13.0791 23L15.916 23C15.97 23.0089 16.0251 23.0089 16.0791 23L20.5 23C21.8748 23 23 21.8748 23 20.5L23 4.5C23 3.12524 21.8748 2 20.5 2L4.5 2L4.5 2ZM4.5 3L20.5 3C21.3342 3 22 3.66576 22 4.5L22 20.5C22 21.3342 21.3342 22 20.5 22L16.5 22L16.5 15L18.4102 15L19.1104 11.5L16.5 11.5L16.5 10.5C16.5 10.2213 16.5265 10.1995 16.6201 10.1387C16.7137 10.0779 17.0029 10 17.5 10L19 10L19 7.18457L18.7148 7.04883C18.7148 7.04883 17.5663 6.5 16 6.5C14.875 6.5 13.9508 6.94823 13.3594 7.6875C12.768 8.42677 12.5 9.41667 12.5 10.5L12.5 11.5L11 11.5L11 15L12.5 15L12.5 22L4.5 22C3.66576 22 3 21.3342 3 20.5L3 4.5C3 3.66576 3.66576 3 4.5 3L4.5 3ZM16 7.5C17.0395 7.5 17.6937 7.72923 18 7.85059L18 9L17.5 9C16.9246 9 16.4635 9.0476 16.0752 9.2998C15.6869 9.55201 15.5 10.0307 15.5 10.5L15.5 12.5L17.8896 12.5L17.5898 14L15.5 14L15.5 22L13.5 22L13.5 14L12 14L12 12.5L13.5 12.5L13.5 10.5C13.5 9.58333 13.732 8.82323 14.1406 8.3125C14.5492 7.80177 15.125 7.5 16 7.5L16 7.5Z" id="Shape" fill="#E2CFEA" fill-rule="evenodd" stroke="none" clip-path="url(#clip_1)" />
  </g>
</svg>