<?xml version="1.0" encoding="utf-8"?>
<svg width="25px" height="25px" viewBox="0 0 25 25" version="1.1" xmlns:xlink="http://www.w3.org/1999/xlink" xmlns="http://www.w3.org/2000/svg">
  <defs>
    <path d="M25 0L25 0L25 25L0 25L0 0L25 0Z" id="path_1" />
    <clipPath id="clip_1">
      <use xlink:href="#path_1" clip-rule="evenodd" fill-rule="evenodd" />
    </clipPath>
  </defs>
  <g id="Github">
    <path d="M25 0L25 0L25 25L0 25L0 0L25 0Z" id="Github" fill="none" stroke="none" />
    <path d="M12.5 2.08334C6.75629 2.08334 2.08334 6.75629 2.08334 12.5C2.08334 18.2437 6.75629 22.9167 12.5 22.9167C18.2437 22.9167 22.9167 18.2437 22.9167 12.5C22.9167 6.75629 18.2437 2.08334 12.5 2.08334L12.5 2.08334ZM12.5 3.64584C17.3993 3.64584 21.3542 7.60073 21.3542 12.5C21.3542 16.4924 18.7276 19.8555 15.1042 20.9646L15.1042 18.3004C15.1042 17.3055 14.5309 16.4524 13.7024 16.0278C15.3368 15.7151 16.6822 14.7908 17.3154 13.5455C17.9487 12.3002 17.7919 10.887 16.8945 9.75037C17.1255 9.03928 17.3836 7.79202 16.7704 6.81051C15.5882 6.81051 14.8254 7.62088 14.4613 8.1248C13.8389 7.92033 13.1728 7.81428 12.5 7.8125C11.8267 7.8131 11.16 7.91812 10.5367 8.12175C10.1717 7.61759 9.4095 6.81051 8.22958 6.81051C7.5259 7.93689 7.9609 9.14821 8.19398 9.64254C7.23544 10.7748 7.03245 12.2113 7.65082 13.4862C8.26919 14.7612 9.6302 15.7122 11.2925 16.0309C10.6122 16.3815 10.1028 17.0177 9.9467 17.7897L9.26209 17.7897C8.58657 17.7897 8.32409 17.5152 7.95899 17.0522C7.59857 16.5892 7.21103 16.2781 6.74541 16.1489C6.49437 16.1223 6.32524 16.3133 6.54399 16.4825C7.28305 16.9857 7.33406 17.8091 7.63042 18.3482C7.90021 18.8336 8.45297 19.2708 9.07797 19.2708L9.89584 19.2708L9.89584 20.9646C6.27243 19.8555 3.64584 16.4924 3.64584 12.5C3.64584 7.60073 7.60073 3.64584 12.5 3.64584L12.5 3.64584Z" id="Shape" fill="#E2CFEA" fill-rule="evenodd" stroke="none" clip-path="url(#clip_1)" />
  </g>
</svg>