<?xml version="1.0" encoding="utf-8"?>
<svg width="25px" height="25px" viewBox="0 0 25 25" version="1.1" xmlns:xlink="http://www.w3.org/1999/xlink" xmlns="http://www.w3.org/2000/svg">
  <defs>
    <path d="M25 0L25 0L25 25L0 25L0 0L25 0Z" id="path_1" />
    <clipPath id="clip_1">
      <use xlink:href="#path_1" clip-rule="evenodd" fill-rule="evenodd" />
    </clipPath>
  </defs>
  <g id="Instagram">
    <path d="M25 0L25 0L25 25L0 25L0 0L25 0Z" id="Instagram" fill="none" stroke="none" />
    <path d="M8 1.5C4.41624 1.5 1.5 4.41624 1.5 8L1.5 17C1.5 20.5838 4.41624 23.5 8 23.5L17 23.5C20.5838 23.5 23.5 20.5838 23.5 17L23.5 8C23.5 4.41624 20.5838 1.5 17 1.5L8 1.5L8 1.5ZM8 2.5L17 2.5C20.0432 2.5 22.5 4.95676 22.5 8L22.5 17C22.5 20.0432 20.0432 22.5 17 22.5L8 22.5C4.95676 22.5 2.5 20.0432 2.5 17L2.5 8C2.5 4.95676 4.95676 2.5 8 2.5L8 2.5ZM18.5 5.5C17.9477 5.5 17.5 5.94772 17.5 6.5C17.5 7.05228 17.9477 7.5 18.5 7.5C19.0523 7.5 19.5 7.05228 19.5 6.5C19.5 5.94772 19.0523 5.5 18.5 5.5L18.5 5.5ZM12.5 7C9.46836 7 7 9.46836 7 12.5C7 15.5316 9.46836 18 12.5 18C15.5316 18 18 15.5316 18 12.5C18 9.46836 15.5316 7 12.5 7L12.5 7ZM12.5 8C14.9912 8 17 10.0088 17 12.5C17 14.9912 14.9912 17 12.5 17C10.0088 17 8 14.9912 8 12.5C8 10.0088 10.0088 8 12.5 8L12.5 8Z" id="Shape" fill="#E2CFEA" fill-rule="evenodd" stroke="none" clip-path="url(#clip_1)" />
  </g>
</svg>